<?xml version="1.0" encoding="UTF-8"?>
<svg xmlns="http://www.w3.org/2000/svg" 
  xmlns:i="http://ns.adobe.com/AdobeIllustrator/10.0/" 
  version="1.1" viewBox="0 0 70 70">
  <defs>
    <style>
      .cls-1 {
        fill: #ac1d1d;
      }

      .cls-2 {
        fill: #00345b;
      }
    </style>
  </defs>
  <g>
    <g id="Layer_1">
        <path class="cls-1" d="M23.9,27.8c2.8,1,14.4.4,16.2.3,1.1,0,1.7-2.2,1.7-2.2,0,0-16.9-7.9-18.4-8.6-2.9-1.4-2,9.5.6,10.5Z"></path>
        <path class="cls-1" d="M34.5,5.3c-15.5,0-28.2,12.6-28.2,28.2s8.3,23.3,19.7,26.9c-.8,1.1-1.7,2.3-2.7,3.6-.7.8,0,2.1,1.1,2.1h0c.3,0,.6,0,.9-.2,2.1-1.5,3.9-3,5.5-4.4,1.3.2,2.6.3,3.9.3,15.5,0,28.2-12.6,28.2-28.2S50,5.3,34.5,5.3ZM34.5,57.6s0,0,0,0c2.7-3.1,3.7-5.2,3.7-5.2.3-.5.6-1.1.9-1.6,3.3-5.8,5.7-11.9,7.9-17.8,1.1-2.8,2.1-5.5,3.4-8.1.9-1.9,2-3.8,3.6-5.3,2.8,3.9,4.5,8.8,4.5,14,0,13.2-10.8,24-24,24ZM34.5,9.5c7.2,0,13.6,3.2,18,8.2,0,0,0,0,0,0,0,0,0,0,0,0h0s0,0,0,0c-1.5.8-2.8,1.8-4,3-2.3,2.3-4.1,5-5.7,7.9-.4.8-1.3,1.3-2.2,1.4-7.1.6-24.4,1.9-27.4,2.2-4.7.4,3,10.2,7,9.7,6.7-.9,14-4.3,18.4-6.8.2-.1.5,0,.6,0h0c.2.2.2.4.1.6-2.4,5.4-4.6,11.1-7.7,16.4,0,0-1,1.7-3.1,4.7-10.4-2.6-18.1-12.1-18.1-23.3s10.8-24,24-24Z"></path>
    </g>
  </g>
  <metadata></metadata>
</svg>